<svg width="80" height="80" viewBox="0 0 80 80" fill="none" xmlns="http://www.w3.org/2000/svg">
<g clip-path="url(#clip0_80_229)">
<path d="M73.3333 42.2222C73.0409 42.2239 72.7509 42.1678 72.4802 42.0572C72.2094 41.9466 71.9632 41.7837 71.7555 41.5777L40 9.79994L8.24444 41.5777C7.81933 41.9418 7.27249 42.132 6.71321 42.1104C6.15393 42.0888 5.6234 41.857 5.22763 41.4612C4.83187 41.0654 4.60002 40.5349 4.57842 39.9756C4.55681 39.4163 4.74705 38.8695 5.11111 38.4444L38.4444 5.11105C38.8608 4.69716 39.424 4.46484 40.0111 4.46484C40.5982 4.46484 41.1614 4.69716 41.5778 5.11105L74.9111 38.4444C75.2169 38.7563 75.424 39.1515 75.5064 39.5805C75.5889 40.0095 75.5431 40.4533 75.3747 40.8564C75.2064 41.2595 74.9229 41.604 74.5599 41.8469C74.1968 42.0898 73.7702 42.2204 73.3333 42.2222Z" fill="#FBFBFB"/>
<path d="M40 17.311L13.3333 44.0666V71.111C13.3333 72.2898 13.8016 73.4202 14.6351 74.2537C15.4686 75.0872 16.599 75.5555 17.7778 75.5555H33.3333V53.3333H46.6667V75.5555H62.2222C63.401 75.5555 64.5314 75.0872 65.3649 74.2537C66.1984 73.4202 66.6667 72.2898 66.6667 71.111V43.911L40 17.311Z" fill="#FBFBFB"/>
</g>
<defs>
<clipPath id="clip0_80_229">
<rect width="80" height="80" fill="white"/>
</clipPath>
</defs>
</svg>
