<svg width="50" height="50" viewBox="0 0 50 50" fill="none" xmlns="http://www.w3.org/2000/svg">
<rect width="50" height="50" fill="white"/>
<path fill-rule="evenodd" clip-rule="evenodd" d="M30.2083 21.3541C28.6889 21.3541 27.2316 21.9577 26.1572 23.0322C25.0828 24.1066 24.4792 25.5638 24.4792 27.0833C24.4792 28.6028 25.0828 30.06 26.1572 31.1344C27.2316 32.2089 28.6889 32.8125 30.2083 32.8125C31.7278 32.8125 33.185 32.2089 34.2595 31.1344C35.3339 30.06 35.9375 28.6028 35.9375 27.0833C35.9375 25.5638 35.3339 24.1066 34.2595 23.0322C33.185 21.9577 31.7278 21.3541 30.2083 21.3541ZM27.6042 27.0833C27.6042 26.3926 27.8785 25.7302 28.3669 25.2419C28.8553 24.7535 29.5177 24.4791 30.2083 24.4791C30.899 24.4791 31.5614 24.7535 32.0498 25.2419C32.5381 25.7302 32.8125 26.3926 32.8125 27.0833C32.8125 27.774 32.5381 28.4363 32.0498 28.9247C31.5614 29.4131 30.899 29.6875 30.2083 29.6875C29.5177 29.6875 28.8553 29.4131 28.3669 28.9247C27.8785 28.4363 27.6042 27.774 27.6042 27.0833ZM17.1875 18.75C17.1875 18.2712 17.2818 17.7971 17.465 17.3548C17.6482 16.9124 17.9168 16.5105 18.2553 16.172C18.5939 15.8334 18.9958 15.5649 19.4381 15.3816C19.8805 15.1984 20.3546 15.1041 20.8333 15.1041C21.3121 15.1041 21.7862 15.1984 22.2285 15.3816C22.6709 15.5649 23.0728 15.8334 23.4113 16.172C23.7499 16.5105 24.0184 16.9124 24.2016 17.3548C24.3849 17.7971 24.4792 18.2712 24.4792 18.75C24.4792 19.7169 24.0951 20.6442 23.4113 21.328C22.7276 22.0117 21.8003 22.3958 20.8333 22.3958C19.8664 22.3958 18.9391 22.0117 18.2553 21.328C17.5716 20.6442 17.1875 19.7169 17.1875 18.75ZM20.8333 18.2291C20.6952 18.2291 20.5627 18.284 20.465 18.3817C20.3674 18.4793 20.3125 18.6118 20.3125 18.75C20.3125 18.8881 20.3674 19.0206 20.465 19.1182C20.5627 19.2159 20.6952 19.2708 20.8333 19.2708C20.9715 19.2708 21.1039 19.2159 21.2016 19.1182C21.2993 19.0206 21.3542 18.8881 21.3542 18.75C21.3542 18.6118 21.2993 18.4793 21.2016 18.3817C21.1039 18.284 20.9715 18.2291 20.8333 18.2291Z" fill="#0097FE"/>
<path d="M18.75 29.1667C19.3025 29.1667 19.8324 28.9472 20.2231 28.5565C20.6138 28.1658 20.8333 27.6359 20.8333 27.0833C20.8333 26.5308 20.6138 26.0009 20.2231 25.6102C19.8324 25.2195 19.3025 25 18.75 25C18.1975 25 17.6676 25.2195 17.2769 25.6102C16.8862 26.0009 16.6667 26.5308 16.6667 27.0833C16.6667 27.6359 16.8862 28.1658 17.2769 28.5565C17.6676 28.9472 18.1975 29.1667 18.75 29.1667Z" fill="#0097FE"/>
<path fill-rule="evenodd" clip-rule="evenodd" d="M7.29167 2.60413C8.08354 2.60419 8.86248 2.80485 9.55582 3.1874C10.2492 3.56995 10.8343 4.12191 11.2566 4.79178C11.6789 5.46164 11.9246 6.22757 11.9708 7.01809C12.017 7.80861 11.8622 8.59796 11.5208 9.31246L14.6604 12.45C16.4505 10.9807 18.5414 9.92249 20.7854 9.34996C20.4345 8.63071 20.2735 7.83358 20.3178 7.0345C20.3622 6.23542 20.6104 5.461 21.0388 4.78502C21.4673 4.10904 22.0616 3.554 22.7653 3.17278C23.469 2.79156 24.2586 2.59686 25.0588 2.60722C25.859 2.61757 26.6433 2.83265 27.3369 3.23195C28.0305 3.63125 28.6103 4.20148 29.021 4.88832C29.4318 5.57517 29.6599 6.35575 29.6836 7.15571C29.7073 7.95567 29.5257 8.74837 29.1562 9.45829C31.3896 10.0833 33.4333 11.1729 35.1771 12.6145L36.3937 11.3958C35.9169 10.398 35.8083 9.26379 36.0869 8.19362C36.3655 7.12345 37.0136 6.18625 37.9164 5.54769C38.8193 4.90912 39.9188 4.61032 41.0207 4.7041C42.1225 4.79788 43.1558 5.2782 43.9377 6.06015C44.7197 6.84211 45.2 7.87534 45.2938 8.97721C45.3876 10.0791 45.0887 11.1786 44.4502 12.0815C43.8116 12.9843 42.8744 13.6323 41.8043 13.911C40.7341 14.1896 39.5999 14.0809 38.6021 13.6041L37.3854 14.8229C38.7289 16.4453 39.7475 18.3112 40.3854 20.3187L40.625 20.3125C41.2406 20.3193 41.8488 20.4473 42.4149 20.6892C42.981 20.9311 43.4939 21.2821 43.9243 21.7222C44.3547 22.1623 44.6943 22.6829 44.9235 23.2542C45.1528 23.8256 45.2673 24.4365 45.2604 25.052C45.2536 25.6676 45.1256 26.2758 44.8837 26.8419C44.6418 27.408 44.2908 27.9209 43.8506 28.3514C43.4105 28.7818 42.89 29.1213 42.3186 29.3506C41.7473 29.5798 41.1364 29.6943 40.5208 29.6875C39.7869 32.2332 38.4259 34.5541 36.5625 36.4375L36.625 36.5C37.6228 36.0232 38.757 35.9145 39.8272 36.1931C40.8973 36.4717 41.8345 37.1198 42.4731 38.0226C43.1117 38.9255 43.4105 40.025 43.3167 41.1269C43.2229 42.2287 42.7426 43.262 41.9606 44.0439C41.1787 44.8259 40.1454 45.3062 39.0436 45.4C37.9417 45.4938 36.8422 45.195 35.9393 44.5564C35.0365 43.9178 34.3885 42.9806 34.1098 41.9105C33.8312 40.8403 33.9399 39.7061 34.4167 38.7083L34.1458 38.4375C32.6323 39.4588 30.9534 40.2102 29.1833 40.6583C28.7864 41.4446 28.1759 42.1031 27.4219 42.5584C26.6679 43.0137 25.8009 43.2474 24.9202 43.2326C24.0395 43.2178 23.1808 42.9552 22.4425 42.4748C21.7042 41.9945 21.1162 41.3158 20.7458 40.5166C19.0656 40.0334 17.4738 39.2836 16.0312 38.2958C15.9646 38.4082 15.8841 38.5118 15.7917 38.6041L13.6396 40.7583C14.0996 41.7638 14.1893 42.8996 13.8929 43.9649C13.5965 45.0302 12.9331 45.9564 12.0198 46.5798C11.1065 47.2033 10.0023 47.4838 8.90221 47.3718C7.80214 47.2598 6.77707 46.7625 6.00818 45.9678C5.2393 45.1731 4.7761 44.1322 4.70046 43.029C4.62482 41.9259 4.94161 40.8315 5.59484 39.9393C6.24806 39.0471 7.19566 38.4145 8.27016 38.1534C9.34465 37.8923 10.4769 38.0195 11.4667 38.5125L13.5833 36.3937C13.6076 36.37 13.6326 36.3471 13.6583 36.325C11.6669 34.3354 10.22 31.8677 9.45625 29.1583C8.74632 29.5278 7.95362 29.7093 7.15366 29.6856C6.3537 29.662 5.57312 29.4339 4.88628 29.0231C4.19944 28.6123 3.62921 28.0325 3.2299 27.3389C2.8306 26.6453 2.61553 25.8611 2.60517 25.0608C2.59482 24.2606 2.78952 23.471 3.17074 22.7673C3.55196 22.0637 4.10699 21.4693 4.78298 21.0409C5.45896 20.6125 6.23337 20.3642 7.03245 20.3199C7.83153 20.2755 8.62867 20.4365 9.34792 20.7875C9.92078 18.5426 10.9798 16.4509 12.45 14.6604L9.3125 11.5208C8.67764 11.8243 7.9826 11.9809 7.27894 11.9791C6.57527 11.9773 5.88105 11.8171 5.24774 11.5104C4.61444 11.2037 4.05832 10.7583 3.62062 10.2074C3.18292 9.6564 2.87488 9.01397 2.71935 8.3277C2.56382 7.64144 2.56479 6.92897 2.72218 6.24314C2.87958 5.5573 3.18936 4.9157 3.62855 4.36592C4.06774 3.81615 4.62507 3.3723 5.25921 3.06731C5.89334 2.76232 6.588 2.60401 7.29167 2.60413ZM8.85417 7.29163C8.85417 7.08644 8.81375 6.88325 8.73523 6.69368C8.6567 6.50411 8.54161 6.33186 8.39652 6.18677C8.25143 6.04168 8.07918 5.92659 7.88961 5.84806C7.70004 5.76954 7.49686 5.72913 7.29167 5.72913C7.08648 5.72913 6.88329 5.76954 6.69372 5.84806C6.50415 5.92659 6.3319 6.04168 6.18681 6.18677C6.04172 6.33186 5.92663 6.50411 5.8481 6.69368C5.76958 6.88325 5.72917 7.08644 5.72917 7.29163C5.72917 7.70603 5.89379 8.10345 6.18681 8.39648C6.47984 8.68951 6.87726 8.85413 7.29167 8.85413C7.70607 8.85413 8.10349 8.68951 8.39652 8.39648C8.68955 8.10345 8.85417 7.70603 8.85417 7.29163ZM25.2375 38.0208C26.9179 38.0268 28.5829 37.7003 30.1366 37.0601C31.6903 36.4198 33.1019 35.4784 34.2902 34.2901C35.4784 33.1019 36.4198 31.6903 37.0601 30.1366C37.7004 28.5829 38.0269 26.9179 38.0208 25.2375V25.1291C37.9625 17.9291 32.0708 12.0375 24.8708 11.9791C23.1722 11.9587 21.4867 12.2782 19.9134 12.9189C18.3401 13.5595 16.9108 14.5084 15.7096 15.7095C14.5084 16.9107 13.5596 18.34 12.9189 19.9133C12.2783 21.4866 11.9588 23.1722 11.9792 24.8708C12.0375 32.0708 17.9292 37.9625 25.1312 38.0208H25.2375ZM41.1458 23.527C41.4503 23.6348 41.7139 23.8344 41.9003 24.0981C42.0868 24.3619 42.1869 24.677 42.1869 25C42.1869 25.323 42.0868 25.638 41.9003 25.9018C41.7139 26.1656 41.4503 26.3651 41.1458 26.4729V23.527ZM40.625 7.81246C40.2106 7.81246 39.8132 7.97708 39.5201 8.2701C39.2271 8.56313 39.0625 8.96056 39.0625 9.37496C39.0625 9.78936 39.2271 10.1868 39.5201 10.4798C39.8132 10.7728 40.2106 10.9375 40.625 10.9375C41.0394 10.9375 41.4368 10.7728 41.7299 10.4798C42.0229 10.1868 42.1875 9.78936 42.1875 9.37496C42.1875 8.96056 42.0229 8.56313 41.7299 8.2701C41.4368 7.97708 41.0394 7.81246 40.625 7.81246ZM7.29167 23.4375C7.70607 23.4375 8.10349 23.6021 8.39652 23.8951C8.68955 24.1881 8.85417 24.5856 8.85417 25C8.85417 25.4144 8.68955 25.8118 8.39652 26.1048C8.10349 26.3978 7.70607 26.5625 7.29167 26.5625C6.87726 26.5625 6.47984 26.3978 6.18681 26.1048C5.89379 25.8118 5.72917 25.4144 5.72917 25C5.72917 24.5856 5.89379 24.1881 6.18681 23.8951C6.47984 23.6021 6.87726 23.4375 7.29167 23.4375ZM37.0833 40.7291C37.0833 41.1435 37.248 41.541 37.541 41.834C37.834 42.127 38.2314 42.2916 38.6458 42.2916C39.0602 42.2916 39.4577 42.127 39.7507 41.834C40.0437 41.541 40.2083 41.1435 40.2083 40.7291C40.2083 40.3147 40.0437 39.9173 39.7507 39.6243C39.4577 39.3312 39.0602 39.1666 38.6458 39.1666C38.2314 39.1666 37.834 39.3312 37.541 39.6243C37.248 39.9173 37.0833 40.3147 37.0833 40.7291ZM9.375 44.2708C9.7894 44.2708 10.1868 44.1062 10.4799 43.8131C10.7729 43.5201 10.9375 43.1227 10.9375 42.7083C10.9375 42.2939 10.7729 41.8965 10.4799 41.6034C10.1868 41.3104 9.7894 41.1458 9.375 41.1458C8.9606 41.1458 8.56317 41.3104 8.27014 41.6034C7.97712 41.8965 7.8125 42.2939 7.8125 42.7083C7.8125 43.1227 7.97712 43.5201 8.27014 43.8131C8.56317 44.1062 8.9606 44.2708 9.375 44.2708ZM23.4375 7.29163C23.4375 6.87722 23.6021 6.4798 23.8951 6.18677C24.1882 5.89375 24.5856 5.72913 25 5.72913C25.4144 5.72913 25.8118 5.89375 26.1049 6.18677C26.3979 6.4798 26.5625 6.87722 26.5625 7.29163C26.5625 7.70603 26.3979 8.10345 26.1049 8.39648C25.8118 8.68951 25.4144 8.85413 25 8.85413C24.5856 8.85413 24.1882 8.68951 23.8951 8.39648C23.6021 8.10345 23.4375 7.70603 23.4375 7.29163Z" fill="#0097FE"/>
</svg>
